# xmcd
#
# Track frame offsets:
#	150
#	14717
#	27477
#	44395
#	58030
#	73987
#	88895
#	103840
#	123742
#	144979
#	165296
#	179835
#	194116
#	214014
#	232633
#	251533
#	271671
#	293890
#	300770
#
# Disc length: 4276 seconds
#
# Revision: 1
# Processed by: cddbd v1.5.1PL2 Copyright (c) Steve Scherf et al.
# Submitted via: EasyCDDAExtractor 9.0.0.1
#
DISCID=1b10b213
DTITLE=Motörhead - Port Vale Stadium Stoke 01-08-81 Disc 1
DYEAR=1981
DGENRE=Hard Rock
TTITLE0=Ace Of Spades 
TTITLE1=Stay Clean 
TTITLE2=Live To Win 
TTITLE3=Over The Top 
TTITLE4=No Class
TTITLE5=The Hammer
TTITLE6=Metropolis 
TTITLE7=Leavin Here 
TTITLE8=Jailbait
TTITLE9=Iron Horse 
TTITLE10=Fire Fire 
TTITLE11=Too Late Too Late
TTITLE12=Fast And Loose 
TTITLE13=Dead Men Tell No Tales
TTITLE14=We Are The Road Crew
TTITLE15=Capricorn
TTITLE16=Train Kept A Rollin
TTITLE17=Bite The Bullet 
TTITLE18=The Chase Is Better Than The Catch
EXTD=
EXTT0=
EXTT1=
EXTT2=
EXTT3=
EXTT4=
EXTT5=
EXTT6=
EXTT7=
EXTT8=
EXTT9=
EXTT10=
EXTT11=
EXTT12=
EXTT13=
EXTT14=
EXTT15=
EXTT16=
EXTT17=
EXTT18=
PLAYORDER=
